<?xml version="1.0" standalone="no"?>
<!DOCTYPE svg PUBLIC "-//W3C//DTD SVG 20010904//EN"
 "http://www.w3.org/TR/2001/REC-SVG-20010904/DTD/svg10.dtd">
<svg version="1.0" xmlns="http://www.w3.org/2000/svg"
 width="512.000000pt" height="512.000000pt" viewBox="0 0 512.000000 512.000000"
 preserveAspectRatio="xMidYMid meet">

<g transform="translate(0.000000,512.000000) scale(0.100000,-0.100000)"
fill="#000000" stroke="none">
<path d="M1760 5109 c-451 -51 -883 -283 -1173 -628 -678 -808 -528 -2011 328
-2626 120 -87 335 -195 478 -241 l117 -37 0 -729 c0 -696 1 -730 19 -766 11
-22 35 -46 59 -60 l40 -22 781 0 c764 0 783 0 821 20 26 13 47 34 60 60 19 37
20 58 20 440 l0 400 593 0 c674 0 640 -4 687 83 l25 46 -54 328 c-58 357 -69
392 -131 425 -27 14 -56 18 -127 18 l-93 0 104 139 c57 76 106 151 110 166 4
17 -4 96 -20 193 -16 96 -24 167 -18 169 5 2 126 63 269 136 241 122 262 135
282 172 28 49 29 94 3 144 -17 35 -83 78 -625 417 l-605 378 -10 40 c-127 501
-485 936 -960 1165 -308 148 -648 207 -980 170z m474 -769 c318 -85 562 -329
647 -645 29 -107 32 -309 6 -405 -72 -268 -281 -471 -556 -541 -117 -29 -284
-24 -383 13 -234 87 -382 269 -420 513 -40 257 131 519 382 588 104 29 160 30
209 5 56 -29 82 -64 88 -119 8 -78 -59 -159 -132 -159 -53 0 -133 -29 -171
-62 -56 -50 -79 -101 -78 -184 0 -87 33 -162 98 -222 81 -74 116 -87 241 -87
103 0 114 2 178 32 79 38 172 122 210 191 58 107 71 226 37 356 -28 112 -73
189 -161 277 -128 129 -281 187 -469 175 -125 -7 -194 -26 -316 -86 -201 -99
-348 -278 -410 -501 -27 -94 -24 -326 4 -431 49 -182 132 -329 261 -462 239
-247 554 -350 926 -305 436 53 747 291 910 695 20 48 43 97 53 107 68 76 194
58 244 -33 27 -48 20 -95 -32 -215 -216 -508 -615 -798 -1178 -856 -565 -58
-1069 192 -1341 666 -142 248 -199 545 -156 811 75 465 447 830 920 904 97 15
298 5 389 -20z"/>
</g>
</svg>
